<svg xmlns="http://www.w3.org/2000/svg" viewBox="0 0 800 900"><g fill="none" fill-rule="evenodd"><path fill="#EC965D" d="M127.292 768.958s-2.612-11.418 1.003-11.997c1.722-.276 2.639 2.724 4.825 3.282 4.181 1.068 7.38 6.194 7.38 6.194l-13.208 2.521"/><path fill="#202128" d="M328.493 442.044c0-4.303-7.833-7.791-17.494-7.791-9.662 0-17.494 3.488-17.494 7.791 0 4.303 7.832 7.791 17.494 7.791 9.661 0 17.494-3.488 17.494-7.791"/><path fill="#FFF" fill-opacity=".207" d="M673.584 896.42H4.35a3.967 3.967 0 1 1 0-7.936h669.234a3.969 3.969 0 0 1 0 7.936"/><path fill="#58281F" d="M538.483 691.807l-.838-.895c-3.363-3.59-8.999-3.774-12.587-.412l-5.524 5.174a3.171 3.171 0 0 1-4.481-.146l-.044-.047a3.171 3.171 0 0 0-4.482-.147l-11.266 10.554a3.17 3.17 0 0 0-.147 4.482l9.139 9.755 10.266-9.616-1.143-1.22 3.708-1.183 17.399-16.299"/><path fill="#202128" d="M516.972 696.405l-35.368-35.532a11.99 11.99 0 0 0-8.501-3.533h-13.356v22.588h6.485a5.59 5.59 0 0 1 3.957 1.639L501 712.376l15.972-15.971"/><path fill="#B2252A" d="M116.659 896.42H37.52c-6.331 0-11.461-5.131-11.461-11.46v-81.029c0-6.33 5.13-11.461 11.461-11.461h79.139c6.33 0 11.461 5.131 11.461 11.461v81.029c0 6.329-5.131 11.46-11.461 11.46"/><path fill="#CE492B" d="M240.209 767.898h-79.14c-6.33 0-11.461-5.131-11.461-11.46V647.73c0-6.33 5.131-11.461 11.461-11.461h79.14c6.33 0 11.461 5.131 11.461 11.461v108.708c0 6.329-5.131 11.46-11.461 11.46"/><path fill="#F2AF2A" d="M367.975 896.42h-79.141c-6.33 0-11.461-5.131-11.461-11.46v-276.7c0-6.33 5.131-11.461 11.461-11.461h79.141c6.329 0 11.46 5.131 11.46 11.461v276.7c0 6.329-5.131 11.46-11.46 11.46"/><path fill="#D19330" d="M507.39 896.42h-79.141c-6.329 0-11.46-5.131-11.46-11.46V688.974c0-6.329 5.131-11.461 11.46-11.461h79.141c6.329 0 11.461 5.132 11.461 11.461V884.96c0 6.329-5.132 11.46-11.461 11.46"/><path fill="#CB242A" d="M100.175 896.42H21.034c-6.329 0-11.46-5.131-11.46-11.46v-81.029c0-6.33 5.131-11.461 11.46-11.461h79.141c6.329 0 11.46 5.131 11.46 11.461v81.029c0 6.329-5.131 11.46-11.46 11.46"/><path fill="#E0562A" d="M235.18 647.73v108.71c0 6.33-5.13 11.46-11.46 11.46h-79.14c-6.14 0-11.15-4.82-11.45-10.89-.01-.19-.01-.38-.01-.57V647.73c0-6.33 5.13-11.46 11.46-11.46h79.14c6.33 0 11.46 5.13 11.46 11.46"/><path fill="#AF402B" d="M146.25 765.5l-1.47 2.4h-.2c-6.14 0-11.15-4.82-11.45-10.89l13.12 8.49M235.18 726.38v30.06c0 6.33-5.13 11.46-11.46 11.46h-24l15.91-45.38c8.5 1.01 10.52.53 10.52.53s5.18-1.78 9.03 3.33"/><path fill="#F9D021" d="M351.489 896.42h-79.14c-6.329 0-11.46-5.131-11.46-11.46v-276.7c0-6.33 5.131-11.461 11.46-11.461h79.14c6.329 0 11.461 5.131 11.461 11.461v276.7c0 6.329-5.132 11.46-11.461 11.46"/><path fill="#F2AF2A" d="M490.905 896.42h-79.14c-6.33 0-11.461-5.131-11.461-11.46V688.974c0-6.329 5.131-11.461 11.461-11.461h79.14c6.329 0 11.46 5.132 11.46 11.461V884.96c0 6.329-5.131 11.46-11.46 11.46"/><path fill="#F1AC78" d="M106.718 595.903l-2.558-3.754c-.442-.672.117-7.672-2.764-5.687-2.426 1.671-2.083 5.688.351 9.15a1.425 1.425 0 0 1-.292 1.955l5.263-1.664"/><path fill="#EC965D" d="M101.455 597.567l-.029.022a1.424 1.424 0 0 1-1.812-.079c-1.578-1.385-3.877-1.527-4.861.504-1.166 2.405 3.442 1.772 4.23 3.877 1.135 3.028 4.751 3.48 6.037 3.229l1.592 6.145 4.079-2.254-1.795-5.38c1.838-.773 2.485-9.866.211-10.111-1.073-.116-.732 1.416-2.389 2.383l-5.263 1.664"/><path fill="#F1AC78" d="M107.413 592.822c-1.158-2.266-8.478.307-8.316 4.679.162 4.372 3.767 4.659 4.457 2.09.69-2.57-.192-2.81-.192-2.81s4.97-2.161 4.051-3.959"/><path fill="#F1AC78" d="M109.666 593.91c-.724-.88-4.248-1.422-6.03 1.299s-.801 6.004 1.298 5.322c2.292-.745 2.089-3.737 2.089-3.737s4.09-1.122 2.643-2.884"/><path fill="#D8D8D8" stroke="#FFFFFE" stroke-width="5.32" d="M103.283 608.696l9.76-4.346"/><path fill="#D8D8D8" stroke="#202128" stroke-width="13.3" d="M61.752 649.744s27.303 2.629 43.264-6.945c15.96-9.573 3.192-36.763 3.192-36.763"/><path fill="#2C2C37" d="M80.269 652.66c0 4.515-8.228 8.176-18.377 8.176-10.15 0-18.378-3.661-18.378-8.176 0-4.516 8.228-8.177 18.378-8.177 10.149 0 18.377 3.661 18.377 8.177"/><path fill="#58281F" d="M25.954 792.826v-.928a6.738 6.738 0 0 1 6.737-6.737h5.725a2.398 2.398 0 0 0 2.398-2.398v-.049a2.399 2.399 0 0 1 2.399-2.398h11.679a2.398 2.398 0 0 1 2.398 2.398v10.112H46.649v-1.264l-2.66 1.264H25.954M98.07 792.64v-.928a6.737 6.737 0 0 0-6.737-6.737h-5.725a2.399 2.399 0 0 1-2.398-2.399v-.048a2.399 2.399 0 0 0-2.398-2.399H69.133a2.4 2.4 0 0 0-2.399 2.399v10.112h10.641v-1.264l2.66 1.264H98.07"/><path fill="#202128" d="M57.978 781.697l.029-78.216h7.669l.205 78.216 17.601-.273-3.146-94.163H43.381l-2.839 94.163 17.436.273"/><path fill="#131513" d="M43.386 689.401h36.955l1.222 34.563H65.729l-.048-18.344h-7.669l-.013 18.344H42.274l1.112-34.563"/><path fill="#202128" d="M61.843 643.863c-25.103 0-21.989 15.316-21.989 15.316v59.699h43.772v-59.637s3.319-15.378-21.783-15.378"/><path fill="#F1AC78" d="M41.27 699.448s2.027.321 4.516 1.235c2.466.906 4.368-2.215.08-3.702-1.371-.476-2.529-.827-3.536-1.022 1.598-.908 3.983-2.481 3.641-3.614-.867-2.867-4.114-1.131-6.391 1.199-1.698 1.737-2.701 4.399-3.292 5.961-.158.353-.315.726-.473 1.137-2.264 5.926 6.254 9.283 8.301 7.855 3.19-2.223-4.613-4.708-4.613-4.708s5.707 3.335 7.276.877c1.236-1.934-3.633-4.367-5.509-5.218"/><path fill="#D8D8D8" stroke="#FFFFFE" stroke-width="5.32" d="M37.979 691.345l-5.244 9.308"/><path fill="#202128" d="M32.542 702.026c-.953-.492-23.312-12.268-20.845-32.055 2.559-20.519 33.476-28.189 53.868-25.646l-1.645 13.198c-8.167-1.018-18.146.125-26.043 2.985-3.652 1.321-12.227 5.05-12.981 11.109-1.297 10.401 13.61 18.519 13.761 18.598l-6.115 11.811"/><path fill="#FFFFFE" d="M50.676 646.163l11.167 32.69 11.264-32.69H50.676"/><path fill="#A59A95" d="M73.055 649.775l-.12-.058a25.592 25.592 0 0 0-22.209.004l-.112.054 3.078 8.934 8.142-6.025 8.142 6.025 3.079-8.934"/><path fill="#0E0D0C" d="M64.139 672.164l-2.306 6.691-2.285-6.692 2.334-25.998 2.257 25.999"/><path fill="#0E0D0C" d="M61.823 655.464h.039a2.564 2.564 0 0 0 2.459-1.838l1.278-4.327a2.564 2.564 0 0 0-2.459-3.29h-2.594a2.564 2.564 0 0 0-2.459 3.29l1.278 4.327a2.564 2.564 0 0 0 2.458 1.838"/><path fill="#FFFFFE" d="M73.106 646.163l-.119-.058a25.592 25.592 0 0 0-22.209.004l-.112.054 3.079 8.934 8.142-5.359 8.141 5.359 3.078-8.934"/><path fill="#2C2C37" d="M61.833 678.855l11.274-34.738 8.09 3.551-4.889 6.528-3.201 1.25 1.346 4.311-12.62 19.098M61.833 678.856L50.56 644.118l-8.09 3.077 4.889 7.002 3.201 1.25-1.346 4.311 12.619 19.098M61.178 680.449v37.365c0 .855 1.33.857 1.33 0v-37.365c0-.856-1.33-.858-1.33 0"/><path fill="#663E26" d="M35.898 626.582s-18.434-31.009.025-39.442c4.348-16.696 27.058-12.482 32.608-10.913 5.549 1.569 8.838-1.28 8.838-1.28 1.858 1.679 2.038 5.203 2.038 5.203l4.29-5.611c5.689 3.561 8.852 12.728.872 25.784l-48.671 26.259"/><path fill="#EC965D" d="M67.761 644.132a5.298 5.298 0 0 1-5.298 5.299h-1.325a5.298 5.298 0 0 1-5.298-5.299v-8.988a5.298 5.298 0 0 1 5.298-5.299h1.325a5.298 5.298 0 0 1 5.298 5.299v8.988"/><path fill="#FFCCA6" d="M65.585 585.924l-15.062 1.219c-9.776.792-17.031 9.724-16.203 19.952l.358 4.404-.079.084a6.528 6.528 0 0 0-.938.002l-.176.014c-3.849.312-6.706 3.829-6.38 7.856l.012.147c.326 4.024 3.708 7.033 7.555 6.722l.182-.015c.323-.026.636-.082.944-.154l.09.067c1.163 9.816 9.541 17.054 19.042 16.285l15.137-1.226c9.777-.791 17.032-9.724 16.204-19.951l-1.484-18.321c-.828-10.227-9.425-17.877-19.202-17.085"/><path fill="#663E26" d="M40.953 616.913c-.705-8.715-3.413-19.532 3.786-26.079 3.646-3.315 7.94-3.648 12.502-4.018 3.717-.301 7.428-.669 11.149-.902 4.014-.252 3.517-6.654-.524-6.463-4.074.194-8.132.659-12.197.988-5.804.47-11.066 1.718-15.484 5.989-4.917 4.752-6.987 11.496-6.428 18.405.34 4.193.68 8.386 1.018 12.58.338 4.167 6.516 3.667 6.178-.5"/><path fill="#131513" d="M57.964 614.331c.104 1.286-.566 2.39-1.497 2.466-.931.075-1.771-.907-1.874-2.193-.105-1.286.565-2.39 1.497-2.465.931-.076 1.77.906 1.874 2.192M76.914 612.797c.104 1.286-.566 2.39-1.498 2.465-.931.076-1.77-.906-1.874-2.192-.104-1.286.566-2.39 1.497-2.465.932-.076 1.771.906 1.875 2.192"/><path fill="#663E26" d="M78.61 604.33c-2.463-2.752-6.314-2.601-8.297.586-.45.721.689 1.382 1.135.664 1.55-2.49 4.347-2.426 6.232-.32.566.633 1.494-.3.93-.93M52.518 607.248c1.524-2.403 4.27-2.789 6.21-.589.561.637 1.489-.297.93-.93-2.506-2.843-6.317-2.235-8.276.855-.455.717.683 1.378 1.136.664M82.978 580.662s1.077 9.787-18.45 11.368c-19.525 1.581-26.769 1.109-25.321 19.001 0 0-6.002-25.948 10.851-29.777 16.852-3.829 23.636 4.013 32.92-.592"/><path fill="#281412" d="M72.461 628.503a3.447 3.447 0 1 1-6.895 0 3.447 3.447 0 0 1 6.895 0"/><path fill="#FADA56" d="M122.896 524.912c0-9.799-8.25-17.67-18.182-17.047-8.456.53-15.353 7.378-15.938 15.83a17.044 17.044 0 0 0 5.579 13.88c1.297 1.174 2.156 2.754 2.313 4.496l.029.334c0 2.136 1.009 9.65 9.117 9.65 8.11 0 9.119-7.514 9.119-9.65l.042-.472c.149-1.663.972-3.171 2.217-4.284a17.032 17.032 0 0 0 5.704-12.737"/><path stroke="#FFFFFE" d="M100.349 530.731L103.896 546h3.838l3.547-15.269c.572-1.974-11.504-1.974-10.932 0z"/><path fill="#95948C" d="M105.913 558.974h-.196c-5.377 0-9.736-4.358-9.736-9.735v-3.721h19.667v3.721a9.734 9.734 0 0 1-9.735 9.735"/><path fill="#F5F3E4" d="M95.981 546.324h19.667c1.038 0 1.04-1.612 0-1.612H95.981c-1.037 0-1.039 1.612 0 1.612M95.981 549.547h19.667c1.038 0 1.04-1.612 0-1.612H95.981c-1.037 0-1.039 1.612 0 1.612"/><path fill="#FADA56" d="M89.897 504.483a4344.97 4344.97 0 0 0-2.146-2.147c-.927-.926-2.622-.995-3.536 0-.916.998-.988 2.547 0 3.535l2.147 2.147c.926.926 2.622.995 3.535 0 .916-.998.989-2.547 0-3.535M82.43 514.181l-10.317-4.136c-2.986-1.197-4.284 3.637-1.329 4.821l10.317 4.136c2.986 1.197 4.284-3.637 1.329-4.821M125.232 508.018l3.153-3.153c.926-.926.995-2.622 0-3.536-.998-.916-2.547-.988-3.535 0l-3.154 3.154c-.925.926-.995 2.622 0 3.535.998.916 2.548.988 3.536 0M130.607 519.002l10.481-3.487c3.039-1.011 1.736-5.841-1.329-4.821l-10.481 3.487c-3.038 1.011-1.736 5.841 1.329 4.821"/><path fill="#FFFFFE" d="M120.95 540.866l2.217 2.216c.521.521 1.329-.287.809-.808l-2.217-2.217c-.521-.521-1.329.288-.809.809"/><path fill="#FADA56" d="M129.359 535.828l6.112 2.034c3.06 1.018 4.373-3.809 1.33-4.822l-6.113-2.033c-3.06-1.018-4.373 3.809-1.329 4.821M86.557 541.991l-3.153 3.153c-.926.926-.995 2.622 0 3.535.998.916 2.547.988 3.535 0l3.154-3.153c.926-.926.995-2.622 0-3.535-.998-.916-2.548-.988-3.536 0M81.182 531.007l-7.729 2.571c-3.038 1.011-1.736 5.841 1.329 4.821l7.729-2.571c3.038-1.011 1.736-5.841-1.329-4.821M108.297 500.923v-11.029c0-3.217-5-3.223-5 0v11.029c0 3.217 5 3.222 5 0"/><path fill="#BDB2AC" d="M200.016 880.175s-1.548-7.152 11.282-12.736l5.555 5.485-8.29 10.714-8.547-3.463M141.715 880.639s0-7.317 13.721-10.061l4.268 6.535-10.366 8.719-7.623-5.193"/><path fill="#58281F" d="M144.25 891.523l-.807 1.464-9.881-5.567 6.449-11.709a3.17 3.17 0 0 1 4.306-1.248l11.083 6.229a3.17 3.17 0 0 1 1.248 4.307l-.031.056a3.17 3.17 0 0 0 1.248 4.307l3.338.254a8.905 8.905 0 0 1 8.905 8.906v1.227h-8.336a22.779 22.779 0 0 1-17.454-8.144l-.068-.082M239.218 893.651v-1.227a8.907 8.907 0 0 0-8.905-8.906h-7.569a3.17 3.17 0 0 1-3.171-3.17v-.064a3.17 3.17 0 0 0-3.17-3.171h-15.437a3.17 3.17 0 0 0-3.171 3.171v13.367h14.066v-1.671l3.516 1.671h23.841"/><path fill="#202128" d="M168.901 774.057c4.096-1.999.657-.333-.273.091a121.398 121.398 0 0 1-5.703 2.413 76.107 76.107 0 0 1-5.909 2.05c.051-.016.566 1.69 2.265 1.365-.708.135-3.894-.004-1.33.318.447.057 3.195 1.884 1.654.669-.659-.519-1.25-1.132-1.842-1.723-1.374-1.371-1.976-2.186-3.527-4.194a111.352 111.352 0 0 1-4.508-6.282c-6.55-9.817-21.863.194-15.307 10.02 4.861 7.286 10.919 16.923 19.792 19.419 5.43 1.527 8.538-2.055 13.561-3.923 3.811-1.416 7.497-3.134 11.148-4.916 4.488-2.192 5.116-8.885 2.642-12.663-2.984-4.56-8.186-4.829-12.663-2.644"/><path fill="#F1AC78" d="M147.935 766.15c-.144 7.453-18.685 11.618-22.435 1.517-1.308-3.524-1.76-7 .88-8.487 3.221-1.814 1.079 7.445 3.516 7.03 0 0-1.747-9.508.438-10.752 3.822-2.177 3.458 3.834 4.588 6.633l.953 3.721s12.137-3.66 12.06.338"/><path fill="#202128" d="M223.914 838.65c-10.43-7.496-27.836-13.717-31.633-15.026a9.302 9.302 0 0 0-4.017-.916h-29.678a9.35 9.35 0 0 0-9.35 9.35 9.329 9.329 0 0 0 3.336 7.155c4.966 8.137 9.909 17.161 11.19 20.952-2.343 3.096-16.759 9.943-16.759 9.943-1.826 11.625 9.339 15.724 9.339 15.724.296-.12 7.315-2.991 14.413-7.195 7.604-4.504 11.606-8.01 11.532-18.186-.027-3.843-2.463-10.23-7.234-19.042h12.665c5.673 2.02 16.654 6.367 23.733 10.89l-9.979 19.615c5.187 11.724 17.612 6.692 17.612 6.692l8.647-17.687c4.969-7.194 3.256-17.183-3.817-22.269"/><path fill="#131513" d="M211.208 851.954l-14.55-21.951-44.51-4.654a9.322 9.322 0 0 0-2.745 6.617 9.325 9.325 0 0 0 3.337 7.155c2.425 3.973 6.831 11.838 6.831 11.838 10.157-8.353 19.122-2.42 19.122-2.42l-3.715-7.222h12.908c5.566 1.982 16.236 6.206 23.322 10.637"/><path fill="#202128" d="M196.733 830.095l17.458-43.524c-3.337-12.479-19.832-13.981-31.288-13.442-6.7.315-12.601 4.499-15.08 10.732l-17.331 43.594s23.307 21.688 46.241 2.64"/><path fill="#202128" d="M203.391 790.908l23.563 6.801c4.816 1.389 9.859-1.69 11.252-6.389l4.299-14.505c3.352-11.311-14.298-16.143-17.641-4.863l-4.299 14.504 11.252-6.388-23.563-6.8c-11.332-3.271-16.171 14.377-4.863 17.64"/><path fill="#F1AC78" d="M225.473 770.247c3.98 6.303 22.024 1.474 23.008-11.416.255-3.337.035-8.994-4.689-8.143-3.638.655.02 8.482-2.854 10.276 0 0-.733-9.342-5.091-8.824-4.36.519-2.517 6.027-1.34 7.899l.065 4.164s-11.234 2.663-9.099 6.044"/><path fill="#202128" d="M217.874 779.759c0 5.758-11.894 10.426-26.565 10.426-14.672 0-26.567-4.668-26.567-10.426s11.895-10.426 26.567-10.426c14.671 0 26.565 4.668 26.565 10.426"/><path fill="#FFFFFE" d="M185.371 774.266l4.407 33.676 17.939-31.72-22.346-1.956"/><path fill="#A59A95" d="M206.922 779.831l-.108-.069c-6.296-3.991-14.44-4.702-22.124-1.932l-.123.044 1.231 9.207 9.348-5.318 6.874 6.737 4.902-8.669"/><path fill="#0E0D0C" d="M193.44 801.451l-3.671 6.493-.903-6.894 7.668-25.805-3.094 26.206"/><path fill="#0E0D0C" d="M194.565 784.542l.039.004c1.132.099 2.283-.562 2.827-1.625l2.162-4.217c.821-1.601-.068-3.356-1.774-3.505l-2.584-.227c-1.706-.149-3.271 1.392-3.126 3.077l.384 4.44c.097 1.119.941 1.954 2.072 2.053"/><path fill="#FFFFFE" d="M207.717 776.222l-.108-.069c-6.296-3.991-14.44-4.702-22.125-1.932l-.123.044 1.232 9.207 9.212-4.652 7.009 6.071 4.903-8.669"/><path fill="#2C2C37" d="M189.769 807.944l18.368-33.769 7.33 4.258-6.212 6.104-3.445.971.455 4.431-16.496 18.005M189.769 807.945l-4.093-35.734-8.693 2.372 3.433 7.431 2.932 1.53-2.227 4.196 8.648 20.205"/><path fill="#663E26" d="M174.235 760.243s-13.16-32.463 5.793-37.858c6.617-15.391 27.801-8.023 32.899-5.706 5.096 2.318 8.671.065 8.671.065 1.537 1.884 1.195 5.292 1.195 5.292l4.939-4.758c4.94 4.25 6.635 13.512-2.934 24.878l-50.563 18.087"/><path fill="#FFCCA6" d="M208.68 725.557l-14.636-1.033c-9.501-.67-17.772 6.843-18.473 16.782l-.301 4.28-.089.069a6.317 6.317 0 0 0-.9-.135l-.171-.012c-3.741-.264-6.997 2.694-7.273 6.607l-.01.143c-.276 3.911 2.53 7.294 6.269 7.558l.175.013c.315.022.625.014.93-.01l.076.078c-.319 9.592 6.664 17.766 15.898 18.418l14.71 1.037c9.501.671 17.771-6.843 18.472-16.781l1.256-17.805c.701-9.938-6.432-18.539-15.933-19.209"/><path fill="#663E26" d="M180.502 751.701c.598-8.468-.42-19.248 7.449-24.48 3.985-2.649 8.155-2.341 12.589-2.028 3.611.255 7.228.444 10.834.765 3.89.345 4.35-5.873.442-6.28-3.939-.411-7.901-.558-11.852-.837-5.641-.398-10.875.031-15.74 3.484-5.415 3.842-8.389 10.013-8.863 16.727l-.862 12.225c-.286 4.05 5.717 4.474 6.003.424"/><path fill="#131513" d="M199.055 752.634c-.089 1.25-.894 2.212-1.799 2.148-.904-.064-1.567-1.129-1.479-2.379.088-1.25.894-2.212 1.798-2.148.905.064 1.568 1.129 1.48 2.379M215.624 753.011c-.089 1.25-.894 2.211-1.799 2.147-.904-.064-1.566-1.129-1.478-2.378.089-1.25.893-2.212 1.799-2.148.904.064 1.566 1.129 1.478 2.379"/><path fill="#663E26" d="M226.146 723.05s-.398 9.552-19.374 8.214c-18.974-1.339-25.859-2.852-27.085 14.536 0 0-1.967-25.787 14.771-26.997 16.737-1.21 22.103 7.31 31.688 4.247M200.938 750.363l-6.782-2.391c-1.122-.395-1.605 1.387-.491 1.78l6.782 2.391c1.122.395 1.605-1.387.491-1.78M211.875 752.769l6.906-2.323c1.119-.376.639-2.159-.491-1.779l-6.906 2.323c-1.119.376-.64 2.159.491 1.779"/><path fill="#2C2C37" d="M189.138 807.765l-10.164 29.798c-.278.812 1.007 1.161 1.282.354l10.164-29.798c.276-.812-1.008-1.16-1.282-.354"/><path fill="#663E26" d="M197.217 768.475h15.122c.742 0 .743-1.153 0-1.153h-15.122c-.742 0-.743 1.153 0 1.153"/><path fill="#F8CA23" d="M292.049 509.319l3.136 3.112a.586.586 0 0 0 1-.419c-.033-3.12-.481-10.689-3.905-14.687l-26.557-1.193c-3.769 3.674-4.894 11.173-5.205 14.277a.586.586 0 0 0 .958.508l3.402-2.818c-3.236 13.952 8.741 32.207 12.159 32.36 3.418.154 16.984-16.953 15.012-31.14"/><path fill="#FBDE62" d="M284.199 504.117c-.504 11.211-6.43 20.051-6.43 20.051s-5.111-9.336-4.607-20.547c.504-11.211 3.383-20.189 6.431-20.052 3.048.137 5.109 9.337 4.606 20.548"/><path fill="#902326" d="M300.702 494.678l4.006-3.662 1.614-35.921c.365-8.116-5.919-14.991-14.035-15.355l-.297-.014c-8.116-.364-14.991 5.92-15.355 14.036l-1.594 35.459 4.104 4.488 21.557.969"/><path fill="#C22C2B" d="M298.24 494.567l4.007-3.662 1.614-35.92c.365-8.116-5.92-14.991-14.035-15.356l-.297-.013c-8.116-.365-14.991 5.919-15.356 14.035l-1.593 35.459 4.103 4.489 21.557.968"/><path fill="#902326" d="M281.101 493.797l4.006-3.662 1.614-35.92c.365-8.116-5.919-14.991-14.035-15.356l-.297-.013c-8.116-.365-14.991 5.919-15.356 14.035l-1.593 35.459 4.103 4.489 21.558.968"/><path fill="#C22C2B" d="M278.64 493.687l4.006-3.662 1.614-35.921c.364-8.116-5.919-14.991-14.035-15.356l-.297-.013c-8.116-.364-14.991 5.919-15.356 14.036l-1.593 35.458 4.103 4.489 21.558.969"/><path fill="#94885E" d="M306.326 474.979l-52.732-2.37c-1.864-.083-3.297-1.878-3.201-4.009l.003-.078c.096-2.13 1.684-3.79 3.548-3.706l52.732 2.369c1.864.084 3.297 1.879 3.201 4.009l-.003.078c-.096 2.131-1.685 3.79-3.548 3.707"/><path fill="#B3A672" d="M306.326 476.576l-52.732-2.369c-1.864-.084-3.297-1.879-3.201-4.01l.003-.078c.096-2.13 1.684-3.79 3.548-3.706l52.732 2.369c1.864.084 3.297 1.879 3.201 4.01l-.003.077c-.096 2.131-1.685 3.79-3.548 3.707"/><path fill="#D8D8D8" stroke="#FBE84F" stroke-width="1.962" d="M264.379 475.864l-4.842-.217a2.064 2.064 0 0 1-1.969-2.154l.218-4.842a2.064 2.064 0 0 1 2.153-1.969l4.842.218a2.063 2.063 0 0 1 1.969 2.154l-.217 4.842a2.063 2.063 0 0 1-2.154 1.968z"/><path fill="#B1C6AC" d="M297.515 497.56l-37.527-1.686a2.992 2.992 0 0 1-2.855-3.123l.002-.03 43.505 1.954-.002.03a2.993 2.993 0 0 1-3.123 2.855"/><path fill="#58281F" d="M360.276 591.212l.781-.947a8.905 8.905 0 0 0-1.206-12.536l-5.839-4.814a3.172 3.172 0 0 1-.43-4.464l.041-.049a3.17 3.17 0 0 0-.43-4.464l-11.911-9.82a3.17 3.17 0 0 0-4.463.429l-8.504 10.314 10.854 8.948 1.062-1.289 1.651 3.526 18.394 15.166M280.617 591.631l1.205-.23a8.906 8.906 0 0 0 7.078-10.417l-1.418-7.434c-.328-1.72.8-3.38 2.52-3.709l.063-.012a3.17 3.17 0 0 0 2.521-3.708l-2.895-15.164a3.17 3.17 0 0 0-3.708-2.521l-13.13 2.506 2.636 13.817 1.642-.313-.983 3.766 4.469 23.419"/><path fill="#202128" d="M358.852 518.079c-5.903-9.116-13.581-13.576-20.504-15.692-1.887-3.632-5.675-6.116-10.05-6.116h-30.32c-6.255 0-11.327 5.07-11.327 11.325v1.155c0 5.148 3.439 9.487 8.141 10.864 3.851 2.475 9.729 7.654 8.96 15.89-.98 10.492-14.575 13.567-15.095 13.68l3.768 18.497c10.329-2.104 28.297-10.879 30.123-30.422.614-6.586-.588-12.309-2.821-17.183h8.571c.265 0 .528-.009.789-.028 1.293-.09 2.594-.014 3.826.39 3.403 1.114 7.171 3.385 10.095 7.899 6.936 10.713-3.243 23.593-3.648 24.095l14.571 12.001c.798-.969 19.395-24.004 4.921-46.355"/><path fill="#131513" d="M319.972 520.077h8.571c.266 0 .528-.009.789-.028 1.294-.09 2.594-.014 3.826.39 3.405 1.114 7.172 3.385 10.095 7.899 6.936 10.713-3.243 23.593-3.647 24.095l14.57 12.001c.799-.969 19.395-24.004 4.921-46.355-5.902-9.116-13.579-13.576-20.504-15.692-1.886-3.632-5.675-6.116-10.05-6.116 0 0-43.722-8.374-30.32 0 13.401 8.373 21.749 23.806 21.749 23.806"/><path fill="#131513" d="M327.957 496.211h-30.32c-5.727 0-10.448 4.254-11.207 9.772l.267 3.869s19.4 10.138 51.714-3.567l-.27-3.914-.134-.044c-1.887-3.631-5.675-6.116-10.05-6.116"/><path fill="#202128" d="M323.178 452.983c.309.109.616.228.922.348 1.433.558-1.593-.702.26.105.675.293 1.338.609 2.002.925 3.561 1.692 6.939 3.738 10.189 5.96 1.79 1.223 3.445 2.591 5.08 4.012 1.122.976 2.177 2.025 3.229 3.074l1.056 1.105c1.205 1.991 1.856 1.427 1.955-1.693-4.056 3.12-9.652 5.283-14.395 7.062-8.276 3.105-4.694 16.486 3.679 13.345 4.1-1.538 8.095-3.301 11.997-5.287 3.038-1.546 6.57-3.169 8.757-5.855 6.315-7.754.466-14.967-5.408-20.552-7.2-6.846-16.235-12.586-25.645-15.894-8.441-2.969-12.04 10.405-3.678 13.345"/><path fill="#94885E" d="M333.916 472.961l-1.52-8.346c2.334-3.956 4.744-11.315.661-22.154l-.008-.023c-.366-1.02.79-1.941 1.764-1.466l3.017 1.472c1.568.764 2.737 2.189 3.107 3.894 3.717 17.186-6.524 26.198-7.021 26.623"/><path fill="#B3A672" d="M333.027 473.748l-.632-9.186a20.567 20.567 0 0 0 2.365-6.128l6.316 1.348c-1.822 8.539-6.424 12.595-8.049 13.966"/><path fill="#202128" d="M337.829 503.577c-32.314 13.705-51.714 3.566-51.714 3.566l-3.532-51.209c-.622-9.021 6.186-16.838 15.206-17.46l19.049-1.314c9.02-.622 16.837 6.186 17.459 15.207l3.532 51.21"/><path fill="#131513" d="M335.968 476.555a15.25 15.25 0 0 1-.799-.412s-2.939-4.162-3.923-1.95c-.852 1.918-.31 3.437.729 4.605a6.87 6.87 0 0 0-1.348 1.147c-2.653.543-5.208.968-5.409 2.879-.224 2.129 1.599 2.803 3.611 2.915.019.181.047.361.077.539-.245.022-.493.041-.746.053-4.683.216-1.754 5.535 2.705 5.292-2.976 2.515-.563 6.571 6.206.924l-1.103-15.992"/><path fill="#F1AC78" d="M338.628 473.962c-.568-.777-2.002-1.163-3.459-1.98 0 0-2.938-4.161-3.923-1.949-1.026 2.308-.044 4.047 1.412 5.281-3.211.893-7.187.946-7.44 3.35-.481 4.576 8.484 2.43 8.484 2.43s-2.52.938-5.542 1.077c-4.683.216-1.754 5.535 2.705 5.292-3.052 2.578-.44 6.781 6.724.483 2.746-2.414 3.12-5.916 3.084-8.678-.025-1.88-.81-4.201-2.045-5.306"/><path fill="#131513" d="M305.448 488.223c-.174-1.661-2.126-2.199-4.374-2.668-.489-.709-1.175-1.306-2.063-1.739.824-1.112 1.171-2.511.409-4.224-.984-2.212-3.922 1.95-3.922 1.95-.691.387-1.373.676-1.963.957-3.174-.755-6.268-1.829-9.261-3.133l1.054 15.271a74.325 74.325 0 0 0 6.629 1.654c.321.426.689.835 1.12 1.214 7.164 6.299 9.776 2.096 6.724-.483 4.459.243 7.389-5.076 2.705-5.292a17.77 17.77 0 0 1-.979-.074c.064-.169.12-.34.173-.512 2.066-.089 3.977-.743 3.748-2.921"/><path fill="#202128" d="M286.316 443.269c-9.798 6.836-18.626 16.299-23.664 27.176-6.138 13.249 20.566 20.936 29.16 22.333 8.727 1.418 12.47-11.916 3.678-13.346-4.736-.769-9.339-2.248-13.701-4.238a53.189 53.189 0 0 1-5.808-3.127c.172.105-2.103-1.589-1.224-.845-1.188-1.005.402.674.484 1.157v3.679c1.047-5.078 7.461-11.253 11.276-15.008 1.748-1.722 3.607-3.331 5.509-4.878 1.26-1.024-.736.526.7-.539.19-.141.381-.279.576-.414 7.261-5.067.354-17.071-6.986-11.95"/><path fill="#F1AC78" d="M290.493 479.753c.569-.777 2.003-1.163 3.46-1.98 0 0 2.938-4.161 3.922-1.949 1.027 2.308.044 4.047-1.411 5.281 3.211.894 7.187.946 7.439 3.35.481 4.576-8.483 2.43-8.483 2.43s2.52.938 5.542 1.077c4.684.216 1.754 5.535-2.706 5.292 3.052 2.578.44 6.781-6.723.483-2.746-2.414-3.121-5.915-3.085-8.678.026-1.879.81-4.201 2.045-5.306"/><path fill="#94885E" d="M284.51 475.08l-1.521-8.347c2.335-3.955 4.744-11.314.661-22.153a1.522 1.522 0 0 1 .848-1.933l3.144-1.308a1.536 1.536 0 0 1 2.024.887c8.058 21.238-4.602 32.379-5.156 32.854"/><path fill="#B3A672" d="M283.621 475.866l-.633-9.186a20.555 20.555 0 0 0 2.366-6.128l6.316 1.348c-1.822 8.54-6.424 12.595-8.049 13.966"/><path fill="#FFFFFE" d="M299.564 440.867l12.942 32.028 9.456-33.257-22.398 1.229"/><path fill="#A59A95" d="M322.107 443.247l-.123-.051a25.589 25.589 0 0 0-22.174 1.22l-.109.06 3.563 8.753 7.799-6.463 8.46 5.571 2.584-9.09"/><path fill="#0E0D0C" d="M314.432 466.091l-1.936 6.807-2.648-6.557.906-26.086 3.678 25.836"/><path fill="#0E0D0C" d="M311.205 449.542l.039-.002a2.564 2.564 0 0 0 2.355-1.969l1.039-4.391a2.565 2.565 0 0 0-2.636-3.15l-2.591.142a2.564 2.564 0 0 0-2.274 3.42l1.512 4.25a2.562 2.562 0 0 0 2.556 1.7"/><path fill="#FFFFFE" d="M321.962 439.638l-.123-.051a25.59 25.59 0 0 0-22.175 1.22l-.109.06 3.563 8.753 7.836-5.798 8.424 4.905 2.584-9.089"/><path fill="#2C2C37" d="M312.496 472.898l9.354-35.303 8.273 3.102-4.524 6.786-3.128 1.424 1.58 4.231-11.555 19.76M312.496 472.899l-13.159-34.068-7.91 3.516 5.266 6.723 3.264 1.073-1.107 4.379 13.646 18.377M311.929 474.489l1.838 33.934c.046.851 1.377.857 1.33 0l-1.838-33.934c-.047-.851-1.377-.857-1.33 0"/><path fill="#663E26" d="M284.318 420.405s-18.434-31.009.026-39.442c4.347-16.696 27.058-12.482 32.607-10.913 5.549 1.569 8.839-1.279 8.839-1.279 1.856 1.679 2.038 5.202 2.038 5.202l4.29-5.611c5.688 3.561 8.851 12.728.871 25.784l-48.671 26.259"/><path fill="#EC965D" d="M316.182 437.956a5.298 5.298 0 0 1-5.299 5.298h-1.324a5.298 5.298 0 0 1-5.299-5.298v-8.989a5.298 5.298 0 0 1 5.299-5.299h1.324a5.298 5.298 0 0 1 5.299 5.299v8.989"/><path fill="#FFCCA6" d="M314.006 379.747l-15.062 1.219c-9.777.792-17.031 9.724-16.203 19.952l.357 4.404-.079.084a6.514 6.514 0 0 0-.937.002l-.177.014c-3.848.312-6.705 3.829-6.38 7.856l.013.147c.325 4.024 3.708 7.033 7.555 6.722l.18-.015a6.37 6.37 0 0 0 .946-.154l.09.067c1.163 9.816 9.54 17.054 19.041 16.285l15.137-1.226c9.777-.791 17.032-9.724 16.203-19.951l-1.483-18.321c-.828-10.227-9.425-17.876-19.201-17.085"/><path fill="#663E26" d="M289.373 410.736c-.705-8.715-3.413-19.532 3.786-26.079 3.647-3.315 7.94-3.648 12.503-4.018 3.716-.3 7.427-.669 11.148-.902 4.014-.252 3.517-6.654-.524-6.462-4.074.193-8.131.658-12.196.987-5.805.47-11.068 1.718-15.486 5.989-4.916 4.752-6.986 11.496-6.426 18.405l1.018 12.58c.337 4.167 6.515 3.667 6.177-.5"/><path fill="#131513" d="M306.385 408.154c.103 1.286-.567 2.39-1.498 2.466-.931.075-1.771-.906-1.874-2.193-.105-1.286.566-2.39 1.497-2.465.931-.076 1.77.906 1.875 2.192M325.334 406.62c.104 1.286-.566 2.39-1.497 2.466-.932.075-1.771-.907-1.875-2.193-.105-1.286.566-2.39 1.497-2.465.932-.076 1.77.906 1.875 2.192"/><path fill="#663E26" d="M327.031 398.153c-2.464-2.752-6.315-2.601-8.299.586-.448.721.69 1.383 1.137.664 1.55-2.49 4.346-2.426 6.232-.319.565.632 1.494-.301.93-.931M300.938 401.071c1.525-2.403 4.27-2.789 6.21-.588.561.636 1.489-.298.93-.931-2.506-2.843-6.316-2.235-8.276.855-.455.717.683 1.378 1.136.664M331.397 374.485s1.078 9.787-18.448 11.368c-19.526 1.581-26.77 1.109-25.321 19.001 0 0-6.003-25.948 10.85-29.777 16.853-3.828 23.637 4.014 32.919-.592"/><path fill="#D55E35" d="M308.722 421.651c4.162 3.438 9.849 3.147 13.541-.838.504-.544-.311-1.362-.816-.816-3.235 3.493-8.213 3.893-11.91.839-.568-.47-1.389.342-.815.815"/><path fill="#87869B" d="M547.42 632.47l2.147-9.002-4.294-7.908 2.147 16.91"/><path fill="#F4EEF2" d="M549.57 623.47l-31.3 55.03-11.36-4.87-24.09-10.34-55.92-8.72 36.33-60.56h41.48l-.441 15.64 6.961-14.16 33.27 13.41 5.07 14.57"/><path fill="#BBB4CB" d="M549.57 623.47l-31.3 55.03-11.36-4.87 37.59-64.73 5.07 14.57M469.724 659.472l34.982-65.458 3.39 8.182-30.904 60.217-7.468-2.941"/><path fill="#FFCCA6" d="M458.833 551.406l-15.094-.717c-9.797-.466-18.135 7.465-18.622 17.714l-.21 4.414-.089.073a6.445 6.445 0 0 0-.929-.118l-.177-.009c-3.858-.183-7.14 2.94-7.332 6.975l-.007.148c-.191 4.032 2.777 7.45 6.633 7.633l.182.009a6.6 6.6 0 0 0 .956-.032l.081.078c-.103 9.884 7.28 18.134 16.801 18.587l15.17.721c9.797.466 18.135-7.465 18.622-17.714l.873-18.36c.488-10.25-7.06-18.936-16.858-19.402"/><path fill="#663E26" d="M430.876 579.803c.415-8.733-.887-19.807 7.092-25.379 4.04-2.822 8.341-2.603 12.913-2.386 3.723.177 7.452.287 11.172.532 4.013.263 4.34-6.15.307-6.477-4.065-.33-8.148-.387-12.222-.581-5.818-.276-11.197.288-16.124 3.958-5.485 4.084-8.401 10.508-8.73 17.432l-.598 12.607c-.2 4.176 5.992 4.47 6.19.294"/><path fill="#663E26" d="M477.192 549.227s-.183 9.844-19.751 8.914c-19.568-.93-26.692-2.325-27.545 15.606 0 0-2.632-26.503 14.572-28.144 17.204-1.641 22.929 7.004 32.724 3.624"/><path fill="#663E26" d="M421.036 586.826c-4.098-12.085-7.952-30.556 4.443-35.477 5.188-16.454 27.656-11.097 33.119-9.249 5.463 1.847 8.891-.831 8.891-.831 1.77 1.771 1.773 5.299 1.773 5.299l4.568-5.387c5.5 3.844 8.195 13.16-.434 25.795l-2.121 10.615-12.868 15.162a16.842 16.842 0 0 1-13.694 5.923l-8.574-.434a16.848 16.848 0 0 1-15.103-11.416"/><path fill="#F1AC78" d="M474.903 582.096a7.4 7.4 0 1 1-6.392-8.287 7.4 7.4 0 0 1 6.392 8.287"/><path fill="#58281F" d="M565.389 691.807l-.839-.895a8.905 8.905 0 0 0-12.587-.412l-5.524 5.174a3.171 3.171 0 0 1-4.481-.146l-.044-.047a3.17 3.17 0 0 0-4.481-.147l-11.267 10.554a3.17 3.17 0 0 0-.146 4.482l9.138 9.755 10.266-9.616-1.143-1.22 3.708-1.183 17.4-16.299"/><path fill="#202128" d="M543.877 696.405l-35.367-35.532a11.994 11.994 0 0 0-8.502-3.533h-50.261v22.588h43.391c1.484 0 2.908.589 3.957 1.639l30.81 30.809 15.972-15.971"/><path fill="#131513" d="M473.1 668.808c0 6.115-4.957 11.071-11.073 11.071h-25.415c-6.114 0-11.071-4.956-11.071-11.071v-3.165c0-6.114 4.957-11.071 11.071-11.071h25.415c6.116 0 11.073 4.957 11.073 11.071v3.165"/><path fill="#131513" d="M453.857 674.811l38.333 5.069-38.664-.467.331-4.602"/><path fill="#202128" d="M419.873 605.389c1.956-11.301 47.133-8.467 50.891 3.358 5.395 16.976 7.306 59.676 7.306 59.676s-26.735 11.457-55.349 3.389c0 0-4.212-58.539-2.848-66.423"/><path fill="#898B8D" d="M526.131 601.496l-14.901-6.006-.609 1.239a15.795 15.795 0 0 1-2.868-4.337c-3.523-7.906.124-17.459 7.975-21.061a15.658 15.658 0 0 1 6.556-1.449c6.083 0 11.824 3.591 14.712 9.337.045.089.082.179.111.267.023.047.044.096.064.146 3.164 8.139-.235 17.543-8.477 21.029a15.77 15.77 0 0 1-2.563.835m-3.759-28.138c-1.67 0-3.386.352-5.077 1.107-6.315 2.82-9.127 10.283-6.32 16.567 2.083 4.664 6.758 7.432 11.569 7.431a12.28 12.28 0 0 0 6.052-1.584c5.84-3.292 7.546-10.055 5.34-16.056-2.352-4.561-6.767-7.465-11.564-7.465"/><path fill="#84828D" d="M522.529 601.91a16.344 16.344 0 0 1-11.908-5.181l.609-1.239 14.901 6.006a15.822 15.822 0 0 1-3.602.414"/><path fill="#4B485C" d="M533.834 580.552c2.359 6.067.69 12.985-5.238 16.327-6.393 3.603-14.648.811-17.621-5.847-2.807-6.284.005-13.747 6.32-16.567 6.603-2.949 13.576.258 16.714 6.5 1 1.99 3.986.24 2.987-1.746-3.923-7.804-13.106-11.633-21.267-7.888-7.852 3.602-11.499 13.155-7.976 21.061 3.529 7.922 12.947 11.651 20.941 8.269 8.243-3.486 11.641-12.89 8.477-21.029-.799-2.053-4.146-1.16-3.337.92"/><path fill="#6E697E" d="M532.437 579.679c2.358 6.066.69 12.985-5.24 16.327-6.392 3.603-14.647.81-17.62-5.847-2.806-6.284.006-13.747 6.319-16.567 6.605-2.949 13.577.258 16.714 6.5 1.001 1.99 3.987.24 2.989-1.746-3.924-7.804-13.108-11.633-21.269-7.889-7.851 3.603-11.497 13.156-7.975 21.062 3.53 7.921 12.947 11.65 20.942 8.269 8.241-3.486 11.641-12.89 8.475-21.029-.797-2.053-4.144-1.16-3.335.92"/><path fill="#6E697E" d="M514.447 599.648l-5.73 18.665c-.655 2.134 2.683 3.046 3.336.92l5.73-18.665c.655-2.134-2.683-3.046-3.336-.92"/><path fill="#F1AC78" d="M508.453 622.004s11.729 1.364 12.546-6.818c0 0 5.455-7.499 0-8.932-5.454-1.433-11.728-3.204-12.546 0l-5.929 13.295 5.929 2.455"/><path fill="#202128" d="M456.702 619.797c7.745 8.052 16.092 16.267 25.512 22.335 6.532 4.208 13.662 5.549 19.883-.04 4.339-3.898 7.675-9.341 10.576-14.375 5.938-10.308-10-19.612-15.934-9.314-2.047 3.553-4.334 6.716-6.45 9.43-.663.85-.681.595-.597.704-.315-.411 4.697-.717 4.954-.692-1.923-.189.329.417-.707-.217-1.895-1.158-4.361-2.713-5.674-3.73-6.089-4.711-12.765-11.171-18.515-17.149-8.248-8.575-21.286 4.483-13.048 13.048M416.693 612.107l9.698 36.534c3.044 11.467 20.848 6.603 17.794-4.906l-9.698-36.533c-3.044-11.467-20.848-6.603-17.794 4.905"/><path fill="#9A97AF" d="M511.702 576.812c1.316-1.48 2.84-2.589 4.64-3.414.849-.389 1.059-1.617.621-2.367-.511-.872-1.515-1.011-2.367-.62a16.158 16.158 0 0 0-5.34 3.955c-1.475 1.659.964 4.115 2.446 2.446"/><path fill="#58281F" d="M651.871 383.466l.3-1.19a8.906 8.906 0 0 0-6.462-10.81l-7.339-1.848a3.173 3.173 0 0 1-2.301-3.849l.016-.062a3.171 3.171 0 0 0-2.3-3.849l-14.971-3.769a3.169 3.169 0 0 0-3.848 2.3l-2.408 9.563a3.506 3.506 0 0 0 2.545 4.256l10.24 2.578.407-1.62 3.002 2.479 23.119 5.821"/><path fill="#F1AC78" d="M551.617 275.222c1.039-.236 2.517.483 4.326.86 0 0 5.477-1.341 4.692 1.222-.819 2.673-2.903 3.411-5.015 3.384 2.032 3.079 5.315 6.012 3.778 8.202-2.922 4.17-8.849-4.134-8.849-4.134s1.424 2.614 3.846 4.925c3.753 3.583-2.557 5.896-6.104 2.454.675 4.37-4.559 5.982-5.965-4.481-.539-4.011 1.692-7.207 3.73-9.487 1.385-1.551 3.726-2.92 5.561-2.945"/><path fill="#EC965D" d="M644.344 134.439c1.551 7.153-3.408 9.275-8.612 9.275-5.203 0-9.42-3.878-9.42-8.663 0-4.784 4.217-8.662 9.42-8.662 5.204 0 7.598 3.375 8.612 8.05"/><path fill="#F1AC78" d="M641.358 127.205c0 2.847-1.67 5.155-3.729 5.155s-3.729-2.308-3.729-5.155c0-2.847 1.67-5.156 3.729-5.156s3.729 2.309 3.729 5.156"/><path fill="#F1AC78" d="M630.077 139.414c-4.614-3.846-2.306-16.578 3.461-17.326 5.769-.748 4.116 9.562 0 10.019-3.461.385-2.691-4.614-2.691-4.614"/><path fill="#F1AC78" d="M628.844 125.993c-5.849 1.583-3.028 17.889 4.987 17.72 8.015-.169 5.542-15.018-1.912-10.253 0 0-.24-8.234-3.075-7.467M644.558 129.664c-.838 2.443-2.95 3.931-4.716 3.326-1.767-.606-2.521-3.077-1.683-5.52.838-2.442 2.949-3.931 4.716-3.325 1.767.605 2.52 3.077 1.683 5.519"/><path fill="#F1AC78" d="M647.04 131.156c-.706 2.059-2.485 3.314-3.975 2.803-1.49-.511-2.125-2.594-1.419-4.653.707-2.059 2.487-3.314 3.976-2.803 1.489.51 2.124 2.594 1.418 4.653"/><path fill="#FFFFFE" d="M639.975 150.174l-15.806-5.26 2.313-7.081 15.806 5.26-2.313 7.081M549.567 269.432l-12.402 8.367 4.166 6.176 12.402-8.367-4.166-6.176"/><path fill="#202128" d="M537.618 281.516c-.86-1.179-20.89-29.128-5.836-51.7 15.613-23.408 57.904-13.907 81.167 1.609l-9.583 10.156c-26.106-3.033-22.614-6.001-33.966-7.333-5.248-.616-17.952-1.302-22.561 5.61-7.914 11.865 5.279 30.824 5.415 31.012l-14.636 10.646"/><path fill="#D8D8D8" stroke="#202128" stroke-width="18.453" d="M603.603 229.753l29.99-86.056"/><path fill="#58281F" d="M560.733 391.437s-2.051 7.679 9.152 19.115c10.144 10.355 13.46 2.19 12.912-1.912-.811-6.068-4.688-12.926-4.458-14.46 0 0 1.858-2.644 1.418-4.407-3.648-14.59-13.21-16.266-18.157-13.701-5.755 2.983-5.733 9.525-.867 15.365"/><path fill="#202128" d="M561.351 293.518c-.073-.172-.09-.21 0 0M644.228 318.601c-.394-4.447-2.364-7.587-5.078-10.982-7.79-9.747-17.993-17.936-27.64-25.829a11.027 11.027 0 0 0-8.077-3.515h-30.917c-5.467 0-9.996 3.965-10.899 9.173-.679 2.09-.587 4.427.109 6.698a15.012 15.012 0 0 0 .561 1.54 347.5 347.5 0 0 1-.936-2.168c.125.296.413.991.598 1.498.519 1.417.966 2.859 1.391 4.307.662 2.261 1.212 4.555 1.711 6.858.344 1.583.637 3.176.914 4.772.153.881.287 1.766.422 2.651l.066.432c.02.175.049.426.095.796 2.594 21.218.017 42.621-5.532 63.165-3.264 12.08 15.428 17.2 18.683 5.151 5.982-22.143 8.849-45.442 6.224-68.316-.514-4.471-1.178-8.947-2.105-13.359h21.161c6.341 5.392 12.527 11.011 18.133 17.106a64.33 64.33 0 0 1 1.485 1.691l.092.108c.047.67.112 1.541.059 2.099l-.024.259c-.03.17-.071.41-.126.764-.162 1.031-.357 2.058-.549 3.084-1.661 8.888-3.962 17.721-6.596 26.369-3.65 11.985 15.054 17.068 18.683 5.151 2.741-9 5.066-18.179 6.794-27.427.726-3.884 1.649-8.102 1.298-12.076"/><path fill="#202128" d="M587.473 214.782c-30.274 0-26.518 15.315-26.518 15.315v59.699c12.976 6.637 43.57 7.669 52.788-4.614v-59.636s4.003-10.764-26.27-10.764"/><path fill="#FFFFFE" d="M574.481 217.971l19.485 32.274 7.567-32.274h-27.052"/><path fill="#A59A95" d="M602.135 221.537l-.156-.057c-9.084-3.336-18.942-3.334-26.782.004l-.125.053 5.357 8.821 8.71-5.949 10.927 5.949 2.069-8.821"/><path fill="#0E0D0C" d="M595.504 243.642l-1.549 6.606-3.989-6.607-1.97-25.668 7.508 25.669"/><path fill="#0E0D0C" d="M589.638 227.153h.047c1.37 0 2.439-.738 2.627-1.814l.744-4.272c.283-1.622-1.505-3.249-3.571-3.249h-3.129c-2.065 0-3.247 1.627-2.359 3.249l2.337 4.272c.589 1.076 1.934 1.814 3.304 1.814"/><path fill="#FFFFFE" d="M601.533 217.971l-.155-.057c-9.085-3.336-18.942-3.334-26.782.003l-.126.054 5.357 8.821 8.833-5.291 10.805 5.291 2.068-8.821"/><path fill="#2C2C37" d="M593.955 250.248l7.202-34.297 10.41 3.506-4.695 6.445-3.63 1.234 2.417 4.257-11.704 18.855M593.955 250.249l-19.989-34.297-9.192 3.038 7.187 6.913 4.09 1.234-.83 4.257 18.734 18.855"/><path fill="#663E26" d="M561.412 201.327s-18.434-31.009.025-39.442c4.347-16.696 27.058-12.482 32.607-10.913 5.549 1.569 8.839-1.28 8.839-1.28 1.856 1.679 2.038 5.203 2.038 5.203l4.29-5.611c5.687 3.56 8.851 12.728.872 25.784l-48.671 26.259"/><path fill="#EC965D" d="M593.274 215.877a5.299 5.299 0 0 1-5.298 5.299h-1.325a5.299 5.299 0 0 1-5.298-5.299v-8.989a5.298 5.298 0 0 1 5.298-5.298h1.325a5.298 5.298 0 0 1 5.298 5.298v8.989"/><path fill="#FFCCA6" d="M591.099 160.669l-15.062 1.219c-9.776.792-17.031 9.724-16.203 19.952l.356 4.404-.079.084a6.5 6.5 0 0 0-.936.002l-.176.014c-3.85.312-6.706 3.829-6.38 7.856l.012.147c.326 4.024 3.708 7.033 7.555 6.722l.181-.015c.323-.026.637-.083.945-.154l.089.067c1.163 9.816 9.54 17.054 19.042 16.285l15.137-1.226c9.777-.791 17.031-9.724 16.203-19.951l-1.483-18.321c-.828-10.228-9.425-17.877-19.201-17.085"/><path fill="#663E26" d="M566.467 191.657c-.706-8.714-3.413-19.531 3.786-26.078 3.645-3.315 7.939-3.648 12.502-4.018 3.716-.301 7.427-.669 11.147-.902 4.015-.252 3.518-6.654-.522-6.462-4.075.193-8.132.658-12.197.987-5.805.47-11.067 1.718-15.486 5.988-4.916 4.752-6.986 11.497-6.426 18.406l1.018 12.58c.338 4.167 6.515 3.667 6.178-.501"/><path fill="#131513" d="M583.478 189.076c.104 1.286-.567 2.39-1.498 2.466-.931.075-1.77-.907-1.875-2.193-.103-1.286.567-2.39 1.498-2.465.931-.076 1.77.906 1.875 2.192M602.427 187.542c.104 1.286-.567 2.39-1.497 2.465-.932.076-1.771-.906-1.875-2.192-.104-1.286.566-2.39 1.498-2.465.93-.076 1.77.906 1.874 2.192"/><path fill="#663E26" d="M604.124 179.075c-2.464-2.752-6.315-2.601-8.299.586-.448.721.69 1.382 1.137.664 1.55-2.49 4.346-2.426 6.231-.32.567.633 1.495-.301.931-.93M578.031 181.993c1.525-2.404 4.27-2.789 6.21-.589.561.637 1.488-.297.931-.93-2.506-2.843-6.318-2.235-8.277.855-.455.717.683 1.378 1.136.664M608.491 155.406s1.077 9.788-18.449 11.369c-19.526 1.58-26.771 1.109-25.321 19.001 0 0-6.002-25.948 10.85-29.777 16.853-3.829 23.637 4.013 32.92-.593"/><path fill="#FFFFFE" d="M583.321 200.47a8.887 8.887 0 0 0 9.575 8.139 8.884 8.884 0 0 0 8.138-9.573l-17.713 1.434"/><path fill="#FADA56" d="M591.104 111.481v-9.226c0-3.217-5-3.222-5 0v9.226c0 3.217 5 3.223 5 0M591.104 134.624v-2.587c0-1.307-1.151-2.56-2.5-2.5-1.355.061-2.5 1.099-2.5 2.5v2.587c0 1.308 1.149 2.561 2.5 2.5 1.354-.06 2.5-1.098 2.5-2.5M669.506 147.395c3.217 0 3.223-5 0-5-3.218 0-3.223 5 0 5M655.498 161.401c3.218 0 3.223-5 0-5-3.217 0-3.223 5 0 5"/><path fill="#FADA56" d="M649.243 168.693l8.024-8.024c2.277-2.278-1.257-5.814-3.537-3.535l-8.023 8.023c-2.278 2.278 1.257 5.815 3.536 3.536M505.934 147.093l8.716 8.717c2.279 2.278 5.815-1.257 3.537-3.536-2.907-2.905-5.812-5.811-8.718-8.717-2.278-2.278-5.815 1.257-3.535 3.536M698.007 230.169h7.307c3.217 0 3.223-5 0-5h-7.307c-3.217 0-3.223 5 0 5"/><path fill="#FADA56" d="M698.007 230.169c3.218 0 3.222-5 0-5-3.217 0-3.223 5 0 5M674.63 230.169c3.217 0 3.223-5 0-5-3.218 0-3.223 5 0 5"/><path fill="#FADA56" d="M659.715 230.169h14.915c3.217 0 3.223-5 0-5h-14.915c-3.217 0-3.223 5 0 5M632.568 273.999l13.139 13.139c2.278 2.278 5.814-1.257 3.536-3.536l-13.139-13.138c-2.278-2.278-5.814 1.256-3.536 3.535M476.137 225.169h-13.074c-3.218 0-3.223 5 0 5h13.074c3.217 0 3.221-5 0-5M516.937 295.8l-11.003 11.003c-2.279 2.278 1.256 5.815 3.535 3.536l11.004-11.004c2.278-2.278-1.257-5.815-3.536-3.535M499.21 225.169h-3.073c-1.309 0-2.561 1.149-2.5 2.5.06 1.354 1.097 2.5 2.5 2.5h3.073c1.308 0 2.561-1.15 2.5-2.5-.061-1.355-1.098-2.5-2.5-2.5"/><path fill="#9BA23B" d="M655.011 896.42H575.87c-6.329 0-11.46-5.131-11.46-11.46V444.602c0-6.329 5.131-11.46 11.46-11.46h79.141c6.329 0 11.46 5.131 11.46 11.46V884.96c0 6.329-5.131 11.46-11.46 11.46"/><path fill="#B7C937" d="M638.525 896.42h-79.139c-6.33 0-11.461-5.131-11.461-11.46V444.602c0-6.329 5.131-11.46 11.461-11.46h79.139c6.33 0 11.461 5.131 11.461 11.46V884.96c0 6.329-5.131 11.46-11.461 11.46"/></g></svg>
